<?xml version="1.0" encoding="UTF-8"?>
<svg id="Layer_1" data-name="Layer 1" xmlns="http://www.w3.org/2000/svg" viewBox="0 0 174.06 174.06">
  <defs>
    <style>
      .cls-1 {
        fill: #fff;
      }

      .cls-2 {
        stroke: #fff;
        stroke-linecap: round;
        stroke-miterlimit: 10;
        stroke-width: 2px;
      }

      .cls-2, .cls-3 {
        fill: #231f20;
      }
    </style>
  </defs>
  <g>
    <g>
      <circle class="cls-1" cx="87.03" cy="87.03" r="83.55"/>
      <path class="cls-3" d="M87.03,174.06C39.04,174.06,0,135.02,0,87.03S39.04,0,87.03,0s87.03,39.04,87.03,87.03-39.04,87.03-87.03,87.03Zm0-167.1C42.88,6.96,6.96,42.88,6.96,87.03s35.92,80.07,80.07,80.07,80.07-35.92,80.07-80.07S131.18,6.96,87.03,6.96Z"/>
    </g>
    <g>
      <path class="cls-1" d="M170.36,87.03c-94.71,32.28-166.65,0-166.65,0"/>
      <path class="cls-3" d="M84.8,104.82c-12.86,0-24.24-.95-33.75-2.24-29.98-4.06-48.01-12.04-48.77-12.38-1.75-.79-2.54-2.85-1.75-4.6,.79-1.75,2.85-2.54,4.6-1.75,.76,.34,71.94,31.29,164.1-.12,1.82-.62,3.8,.35,4.42,2.17,.62,1.82-.35,3.8-2.17,4.42-32.47,11.07-62.25,14.5-86.68,14.5Z"/>
    </g>
  </g>
  <g>
    <path class="cls-3" d="M64.5,47.66c3.12-2.65,6.47-5,10-7.07,1.59-.93,3.23-1.92,4.95-2.62,.77-.31,2.52-1,3.22-.39-.15-1.17-.3-2.34-.45-3.52-1.18,2.37-2.97,4.19-4.95,5.92-2.19,1.92-4.47,3.74-6.8,5.49s-4.93,3.58-7.48,5.25c-2.4,1.58-4.9,3.42-7.57,4.52-.52,.22-1.14,.44-1.7,.52-.71,.1-1.46-.3-.73,.43,.47,.47-.02,.56,.39,0s.74-1.24,1.14-1.83c1.33-2,2.89-3.82,4.61-5.49,3.41-3.33,7.52-6.04,11.97-7.79,2.32-.91,4.74-1.59,7.2-2.01,.38-.07,1.96-.13,1.96-.13h-.02c-.18-.15-.27-.37-.27-.65,.07-.01-.08,.45-.08,.46-.35,.36-.56,.99-.88,1.41-3.28,4.29-8.17,7.13-12.89,9.56-5.25,2.71-10.72,4.95-16.36,6.73-1.14,.36-2.24,.66-3.4,.85-.1,.02-.37,.02-.36-.05,.02-.14,.57,.54,.49,.48,.23,.2-.41,.81,.11-.02,.11-.18,.23-.37,.36-.54,1.45-1.9,3.93-3.34,5.92-4.61,10.27-6.55,22.22-9.71,32.91-15.44l-2.93-5.01c-12.45,8.49-24.93,16.98-38.14,24.27l3.52,4.56c4.58-5.35,9.16-10.7,13.74-16.05,2.26-2.64,4.52-5.28,6.78-7.91,2.12-2.48,5.21-5.06,5.39-8.52,.1-1.95-1.93-3.21-3.67-2.8-3.57,.85-6.73,2.73-9.63,4.93-3.33,2.52-6.52,5.22-9.76,7.86-6.64,5.41-13.27,10.83-19.91,16.26l4.1,4.1c11.54-11.65,23.07-23.29,34.61-34.94,2.11-2.13-.06-5.45-2.82-4.85-4.24,.92-7.93,3.27-11.5,5.62-3.89,2.55-7.72,5.18-11.51,7.87-7.59,5.37-15.03,10.95-22.47,16.53l3.52,4.56c8.4-10.75,18.98-19.45,29.49-28.04,2.53-2.07-.83-6.47-3.52-4.56-8.95,6.38-17.9,12.76-26.84,19.14l3.52,4.56c7.56-6.58,15.13-13.16,22.69-19.73,2.53-2.2-.71-6.15-3.52-4.56-3.83,2.18-7.65,4.36-11.48,6.53-3.51,2-7.21,3.82-10.39,6.33-2.79,2.2-4.53,5.08-5.26,8.55-.54,2.6-.5,5.87-2.62,7.67l4.56,3.52c5.35-9.3,12.35-17.47,20.66-24.25l-4.1-4.1c-7.83,6.56-14.73,14.17-20.55,22.58-1.45,2.1-2.83,4.25-4.14,6.44s-3.17,4.76-3.28,7.41,1.91,5.42,4.81,5.37,4.36-2.47,5.33-4.75c2.58-6.11,5.15-12.23,7.73-18.34,.83-1.96-1.63-4.33-3.57-3.57-3.19,1.26-5.15,3.68-6.91,6.53s-3.33,5.9-4.66,9.02c-2.68,6.27-4.46,12.78-5.34,19.54-.22,1.68-.38,3.37-.47,5.06s-.26,3.41,.13,5.02c.99,4.04,5.13,4.38,8.58,4.9,7.16,1.08,14.4,1.39,21.56,2.45,7.83,1.16,15.46,3.39,22.61,6.8l2.24-5.3c-7-2.36-14.43-2.67-21.72-3.48s-14.08-3.12-21.03-5.49c-1.8-.61-3.6-1.23-5.4-1.84-.9-.31-1.8-.61-2.7-.92-.52-.18-1.4-.69-1.94-.72-.24-.01-.05,.47,0,.47-.03,0,.3-.64,.32-.67,.43-.76,1.02-1.45,1.54-2.15,1.19-1.61,2.38-3.21,3.59-4.8,4.35-5.73,8.85-11.35,13.47-16.87,5.36-6.4,10.91-12.65,16.61-18.75l-4.1-4.1c-9.69,11.32-19.44,22.75-26.91,35.71-1,1.73,.23,4.63,2.5,4.37s3.73-1.26,5.25-2.85,3.02-3.23,4.53-4.84c3.09-3.3,6.17-6.6,9.26-9.89,6.17-6.6,12.34-13.19,18.51-19.79,2.55-2.72-1.43-6.73-4.1-4.1-6.84,6.72-13.23,13.88-19.11,21.45-2.96,3.81-5.81,7.69-8.52,11.68s-5.38,8.01-5.05,12.86c.11,1.56,1.24,2.91,2.9,2.9,4.54-.02,7.54-3.71,10.45-6.7s6.06-6.28,9.01-9.5c5.91-6.46,11.53-13.25,16.22-20.66,1.95-3.08,4.85-6.86,4.65-10.7-.11-2.16-1.4-4.08-3.53-4.7-2.39-.69-4.61,.59-6.59,1.79-7.48,4.54-13.98,10.53-20.02,16.82-3.28,3.42-6.55,6.88-9.64,10.47s-5.93,7.59-7.13,12.3c-.72,2.84,2.74,4.81,4.85,2.82,9.38-8.83,17.41-19.06,23.78-30.25,1.01-1.77,0-3.58-1.73-4.26-2.85-1.13-5.7,.3-7.9,2.08-2.31,1.87-4.35,4.18-6.4,6.32-4.22,4.4-8.27,8.97-12.15,13.67,1.37,1.37,2.74,2.74,4.1,4.1,13.32-17.07,28.35-33.26,45.1-47.02,2.24-1.84,4.54-3.58,6.95-5.19,1.3-.87,2.64-1.69,4-2.47,.55-.31,1.2-.56,1.71-.92s.44,.19-.14-.38l-.45-3.52c-3.21,4.6-7.69,8.19-12.14,11.53-4.72,3.54-9.45,7.09-14.44,10.24s-10.07,5.97-15.63,7.44c-.15,.04-.82,0-.96,.11,.04-.03,.24,.05,.23,.06l.43,.84c.14,.88,.32,1.1,.56,.66,.42-.22,.87-1.07,1.18-1.43,.5-.59,1.02-1.16,1.55-1.72,1.79-1.9,3.72-3.68,5.8-5.26,4.79-3.65,10.24-6.36,16.02-8.02l-2.24-5.3c-7.83,5.66-16.27,10.42-25.16,14.21l3.52,4.56c10.76-9.23,23.67-15.71,37.44-19l-2.24-5.3c-12.69,8.26-25.53,16.29-38.52,24.07l4.37,2.5c.16-1.67,1.83-3.08,2.93-4.17,1.4-1.38,2.86-2.71,4.36-3.99,3.13-2.66,6.48-5.05,10-7.17,3.43-2.08,7.02-3.94,10.74-5.46s8.27-3.18,12.54-2.38c-.43-1.62-.85-3.23-1.28-4.85-.96,.96-2.36,1.29-3.6,1.75-1.65,.6-3.3,1.24-4.93,1.9-3.33,1.35-6.63,2.8-9.86,4.37-6.34,3.07-12.45,6.59-18.31,10.51l3.52,4.56c6.16-5.63,13.96-9.01,21.52-12.32l-2.93-5.01c-4.45,2.46-8.9,4.93-13.35,7.39-2.18,1.21-4.37,2.42-6.55,3.63-1.09,.6-2.18,1.21-3.27,1.81-.88,.49-1.84,1.17-2.88,1.23l2.05,4.95c6.31-6.39,13.86-11.53,22.19-14.91l-2.24-5.3c-8.49,5.6-16.98,11.2-25.47,16.8-3.1,2.05-.38,6.8,2.93,5.01,16.52-8.97,33.09-17.99,50.54-25.06l-3.57-2.03c4.42,12.28-1.46,25.08-3.41,37.25-1.07,6.65-1.52,13.36-1.98,20.07-.23,3.37-.47,6.74-.82,10.1-.15,1.51-.32,3.03-.54,4.53-.1,.7-.18,1.41-.34,2.1-.13,.57,.04,.61-.55,.81-5.9,1.9-11.15,5.58-13.58,11.42-1.01,2.43,2.26,4.46,4.26,3.28,6.68-3.95,12.62-9.09,17.42-15.19,1.71-2.17,.21-5.62-2.82-4.85-5.55,1.42-11.02,3.12-16.4,5.09l2.82,4.85c4.55-4.02,9.1-8.04,13.65-12.06,2.43-2.15-.82-6.49-3.52-4.56-6.57,4.7-12.74,9.91-18.43,15.65-1.1,1.11-1.11,2.99,0,4.1,1.22,1.22,2.86,.96,4.1,0,6.23-4.84,12.47-9.69,18.7-14.53l-4.1-4.1c-5.92,4.9-11.54,10.14-16.83,15.71-1.88,1.97-.04,5.86,2.82,4.85,3.6-1.28,6.53-3.55,8.61-6.76,1.5-2.31-1.62-5.77-3.97-3.97-3.91,2.99-7.81,5.99-11.72,8.98l3.52,4.56c7.28-5.95,14.07-12.47,20.31-19.49,2.3-2.59-.55-5.83-3.52-4.56-7.96,3.41-14.12,9.72-20.01,15.87-2.62,2.74,1.28,6.48,4.1,4.1,7.95-6.71,15.54-13.83,22.73-21.35,2.24-2.34-.63-6.29-3.52-4.56-9.97,5.99-18.5,13.98-26.91,21.94l4.1,4.1c8.08-8.31,16.17-16.63,24.25-24.94,2.33-2.39-.61-6.09-3.52-4.56-11.33,6-20.45,15.21-29.32,24.29-2.64,2.7,1.3,6.51,4.1,4.1,12-10.32,23.74-20.95,35.2-31.87,2.45-2.34-.66-6.05-3.52-4.56-13.89,7.27-25.6,17.88-37.11,28.37-2.78,2.53,1.31,6.55,4.1,4.1,11.79-10.34,23.59-20.68,35.38-31.03,2.49-2.19-.72-6.24-3.52-4.56-3.91,2.36-7.81,4.72-11.72,7.08-3.19,1.93-.28,6.95,2.93,5.01,3.91-2.36,7.81-4.72,11.72-7.08-1.17-1.52-2.34-3.04-3.52-4.56-11.79,10.34-23.59,20.68-35.38,31.03l4.1,4.1c11.16-10.18,22.46-20.41,35.93-27.46-1.17-1.52-2.34-3.04-3.52-4.56-11.46,10.92-23.2,21.55-35.2,31.87l4.1,4.1c8.55-8.74,17.23-17.6,28.15-23.38l-3.52-4.56c-8.08,8.31-16.17,16.63-24.25,24.94-2.61,2.68,1.39,6.67,4.1,4.1,8.06-7.63,16.18-15.29,25.73-21.03-1.17-1.52-2.34-3.04-3.52-4.56-7.19,7.51-14.78,14.64-22.73,21.35,1.37,1.37,2.74,2.74,4.1,4.1,5.58-5.83,11.29-11.73,18.83-14.96-1.17-1.52-2.34-3.04-3.52-4.56-6.25,7.03-13.04,13.54-20.31,19.49-2.52,2.06,.9,6.56,3.52,4.56,3.91-2.99,7.81-5.99,11.72-8.98l-3.97-3.97c-1.22,1.89-3.02,3.34-5.14,4.1l2.82,4.85c5.3-5.57,10.92-10.81,16.83-15.71,1.21-1,1.03-3.07,0-4.1-1.22-1.22-2.86-.96-4.1,0-6.23,4.84-12.47,9.69-18.7,14.53,1.37,1.37,2.74,2.74,4.1,4.1,5.34-5.38,11.09-10.33,17.25-14.74-1.17-1.52-2.34-3.04-3.52-4.56-4.55,4.02-9.1,8.04-13.65,12.06-2.12,1.87,.11,5.84,2.82,4.85,5.38-1.97,10.85-3.67,16.4-5.09l-2.82-4.85c-4.51,5.73-9.97,10.57-16.25,14.29l4.26,3.28c.88-2.11,2.7-3.8,4.58-5.01,1.03-.66,2.12-1.25,3.25-1.72,1.21-.5,2.52-.82,3.63-1.55,3.08-2.01,3.04-6.05,3.44-9.33,.41-3.35,.69-6.72,.93-10.08,.49-6.75,.8-13.53,1.8-20.23,1-6.68,2.96-13.14,4.23-19.76,1.37-7.16,1.86-14.71-.65-21.69-.48-1.34-2.03-2.65-3.57-2.03-17.92,7.26-34.95,16.43-51.92,25.65l2.93,5.01c8.49-5.6,16.98-11.2,25.47-16.8,1.2-.79,1.79-2.26,1.19-3.62-.53-1.2-2.06-2.23-3.42-1.68-9.29,3.76-17.7,9.26-24.75,16.4-1.68,1.7-.53,5.11,2.05,4.95,2.75-.17,4.97-1.56,7.32-2.86s4.87-2.7,7.3-4.04c4.78-2.65,9.57-5.3,14.35-7.95,1.37-.76,1.82-2.64,1.04-3.97-.87-1.48-2.53-1.67-3.97-1.04-8.07,3.53-16.12,7.22-22.69,13.23-2.4,2.2,.76,6.4,3.52,4.56,6-4.01,12.28-7.61,18.78-10.74,3.11-1.49,6.26-2.88,9.47-4.14s7.11-2.04,9.62-4.55c1.44-1.45,.92-4.43-1.28-4.85-5.32-1-10.46,.29-15.4,2.28-4.43,1.79-8.71,3.89-12.78,6.39-4.06,2.49-7.91,5.34-11.5,8.47s-7.76,6.57-8.25,11.62c-.22,2.24,2.61,3.56,4.37,2.5,12.99-7.78,25.83-15.8,38.52-24.07,2.74-1.79,1.03-6.08-2.24-5.3-14.77,3.52-28.49,10.61-40,20.49-1.08,.93-1.06,2.76-.23,3.81,.97,1.22,2.37,1.33,3.74,.75,8.89-3.79,17.32-8.55,25.16-14.21,1.17-.84,1.8-2.22,1.19-3.62-.57-1.3-2-2.09-3.42-1.68-6.18,1.77-12.07,4.62-17.22,8.46-2.55,1.91-4.97,3.98-7.16,6.3s-6.13,5.9-4,9.34c1.88,3.04,5.79,2.18,8.57,1.23,3.25-1.1,6.4-2.51,9.43-4.11,6.12-3.25,11.75-7.33,17.3-11.46,6.24-4.64,12.53-9.25,17.03-15.7,.72-1.04,.41-2.66-.45-3.52-2.24-2.21-5.21-1.45-7.69-.11s-4.8,2.84-7.07,4.46c-4.76,3.4-9.19,7.24-13.52,11.17-8.73,7.91-17.03,16.3-24.83,25.13-4.4,4.98-8.64,10.09-12.73,15.33-.96,1.23-1.2,2.9,0,4.1,1.03,1.03,3.1,1.22,4.1,0,3.41-4.15,6.96-8.18,10.64-12.09,1.81-1.92,3.65-3.81,5.53-5.67,1.09-1.08,2.93-3.51,4.64-2.83l-1.73-4.26c-6.14,10.79-13.83,20.56-22.87,29.08l4.85,2.82c1.75-6.85,7.67-12.08,12.32-17.08,4.98-5.35,10.14-10.65,15.99-15.08,1.47-1.11,2.98-2.17,4.53-3.17,.71-.45,1.42-.9,2.15-1.32,.21-.12,1.01-.41,1.12-.61,.29-.07,.26-.15-.1-.24-.18-.04-.31-.14-.39-.28-.34-.13,.22-.63-.1,.05,.18-.37-.16,.7-.14,.61-.16,.58-.32,.85-.62,1.39-.93,1.72-1.93,3.4-2.98,5.06-4,6.36-8.72,12.21-13.73,17.8-2.85,3.19-5.79,6.29-8.77,9.37-1.42,1.48-2.85,2.95-4.28,4.41-1.08,1.1-2.36,2.61-4.03,2.62l2.9,2.9c-.29-4.16,2.77-7.79,5-11.03,2.5-3.63,5.11-7.2,7.84-10.66,5.61-7.11,11.68-13.85,18.14-20.2l-4.1-4.1c-5.78,6.18-11.56,12.35-17.33,18.53-2.89,3.09-5.78,6.18-8.67,9.26-1.38,1.47-2.76,2.95-4.14,4.42-.72,.77-1.44,1.55-2.17,2.32-.31,.32-.61,.62-.93,.93-.2,.19-.82,.29-.21,.22l2.5,4.37c7.23-12.55,16.62-23.58,26-34.54,1.02-1.19,1.17-2.93,0-4.1-1.08-1.08-3.03-1.15-4.1,0-10.9,11.66-21.17,23.87-30.82,36.58-1.15,1.52-2.3,3.04-3.43,4.58s-2.49,3.13-2.85,5.12c-.89,4.87,4.13,6.25,7.68,7.47,7.71,2.63,15.46,5.85,23.53,7.17,8.56,1.4,17.4,1.22,25.7,4.01,3.08,1.04,5.22-3.88,2.24-5.3-5.79-2.77-11.85-4.94-18.11-6.32s-13.26-1.97-19.92-2.63c-3.25-.32-6.49-.68-9.71-1.24-.66-.12-1.6-.48-2.27-.45-.86,.04,.63-.47,.05,.36,.05-.07-.13-.38-.11-.48,.19-1.42,.04-2.97,.15-4.41,.43-5.99,1.74-11.91,3.76-17.57,1.12-3.12,2.48-6.13,4.07-9.03,.82-1.51,1.69-3.01,2.65-4.43,.64-.94,1.47-2.08,2.57-2.51l-3.57-3.57c-1.88,4.45-3.75,8.91-5.63,13.36-.44,1.05-.88,2.1-1.32,3.14-.2,.47-.38,.94-.6,1.4-.12,.27-.64,.89-.65,1.15,0-.33,1.25,0,1.5,.08,.54,.19-.08,.39,.26,.17,.16-.1,.4-.9,.51-1.1,.27-.51,.56-1.01,.84-1.51,4.06-7.17,8.93-13.85,14.52-19.9,3.24-3.51,6.71-6.79,10.37-9.86,1.2-1.01,1.04-3.06,0-4.1-1.2-1.2-2.88-.99-4.1,0-8.67,7.07-15.99,15.73-21.57,25.42-1.71,2.97,2.11,5.59,4.56,3.52s3.24-5.35,3.79-8.46,1.2-5.49,3.75-7.49c2.88-2.27,6.38-3.89,9.56-5.7,3.83-2.18,7.65-4.36,11.48-6.53l-3.52-4.56c-7.56,6.58-15.13,13.16-22.69,19.73-2.45,2.13,.82,6.48,3.52,4.56,8.95-6.38,17.9-12.76,26.84-19.14l-3.52-4.56c-10.51,8.59-21.09,17.29-29.49,28.04-.89,1.14-1.2,2.59-.23,3.81,.82,1.02,2.57,1.63,3.74,.75,7.29-5.47,14.58-10.93,22.02-16.2,3.64-2.58,7.31-5.11,11.04-7.58,3.46-2.29,6.93-4.76,11.05-5.65l-2.82-4.85c-11.54,11.65-23.07,23.29-34.61,34.94-1.1,1.11-1.11,2.99,0,4.1,1.2,1.2,2.89,1,4.1,0,6.33-5.18,12.67-10.36,19.01-15.53,3.03-2.47,6.03-4.98,9.1-7.38,2.6-2.03,5.38-3.87,8.62-4.64l-3.67-2.8c-.01,.21-.38,.54-.49,.68-.54,.68-1.13,1.32-1.69,1.98-1,1.17-2.01,2.34-3.01,3.52-2.13,2.49-4.27,4.98-6.4,7.47-4.2,4.91-8.41,9.82-12.61,14.73-2.09,2.44,.51,6.21,3.52,4.56,13.21-7.29,25.69-15.78,38.14-24.27,3.06-2.09,.4-6.79-2.93-5.01-11.56,6.2-24.71,9.4-35.44,17.15-2.68,1.94-5.98,4.19-6.59,7.69-.68,3.87,2.72,6.46,6.33,6.09s7.15-1.94,10.45-3.21c3.56-1.37,7.07-2.91,10.48-4.62,6.01-3.02,12.12-6.7,16.06-12.3,2.06-2.93,2.41-7.32-1.29-9.13-2.76-1.36-6.31-.39-9.12,.35-6.18,1.62-11.91,4.72-16.76,8.86-2.32,1.98-4.36,4.22-6.19,6.65s-4.55,5.95-2.95,9.16c2.13,4.26,7.9,2.8,11.24,1.1,3.63-1.84,7.06-4.25,10.39-6.58s6.76-4.95,9.99-7.62c3.01-2.49,5.99-5.15,7.76-8.71,.54-1.08,.56-2.65-.45-3.52-4.17-3.56-9.23-1.2-13.39,1.08-4.63,2.53-8.96,5.59-12.98,9-1.2,1.01-1.04,3.06,0,4.1,1.18,1.18,2.9,1.02,4.1,0h0Z"/>
    <path class="cls-3" d="M78.5,81.64c6.41-.96,12.46,1.13,18.35,3.41,1.96,.76,4.22,1.71,5.56,3.41,.7,.89,.92,1.93,1.31,2.97,.5,1.38,1.2,2.64,2.33,3.6,4.44,3.77,11.09,1.5,16.1,.44,6.7-1.42,13.4-2.83,20.11-4.25,7.55-1.6,15.1-3.19,22.66-4.79-.51-1.86-1.03-3.73-1.54-5.59-10.15,4.14-20.55,8.45-31.53,9.67l.77,5.7c5.78-1.47,11.55-2.93,17.33-4.4,5.16-1.31,10.98-2.3,14.9-6.22,1.76-1.76,3.02-4.01,3.35-6.48,.35-2.62-.41-5.05-1.48-7.41-.97-2.14-2.12-4.1-2.65-6.42-.59-2.64-.82-5.3-1.94-7.79s-2.95-4.19-4.36-6.35-2.32-4.62-3.63-6.85-2.88-4.34-4.6-6.28-3.93-3.44-5.69-5.35c-.73-.8-1.11-1.83-1.57-2.8-.57-1.19-1.32-2.27-2.21-3.24-1.7-1.85-3.89-3.31-5.93-4.74-4.25-2.98-8.76-5.61-13.45-7.85-10.7-5.11-22.18-8.24-33.99-9.29-3.24-.29-3.97,5.04-.77,5.7,7.75,1.59,15.5,3.18,23.26,4.77,3.63,.74,7.47,1.29,10.85,2.88,3.1,1.46,5.94,3.51,8.75,5.46s5.36,3.93,7.41,6.53c2.24,2.84,3.79,6.14,6.07,8.96,2.06,2.54,4.59,4.7,6.5,7.36,1.7,2.37,2.91,5.06,4,7.75,1.27,3.15,2.45,6.38,4.12,9.36,.81,1.44,1.76,2.8,2.81,4.07,.55,.66,1.15,1.26,1.77,1.86,.21,.21,.45,.42,.64,.65,.43,.49,.31,.65,.4,.19h5.59c-3.01-8.36-6.8-16.45-11.39-24.06-2.3-3.82-4.8-7.53-7.3-11.21-2.53-3.72-5.2-7.36-8.32-10.6l-4.1,4.1c7.77,6.47,12.84,15.58,14.47,25.54,.39,2.37,.51,4.78,.46,7.18-.04,1.67,.23,5.14-1.2,6.28-1.01,.8-2.44,1.24-3.61,1.76-1.58,.7-3.15,1.41-4.73,2.11-2.98,1.33-5.95,2.66-8.93,3.99-3.33,1.49-6.65,2.97-9.98,4.46-3.1,1.38-6.35,3.16-9.77,3.58,.68,1.65,1.37,3.3,2.05,4.95,5.29-6.3,10.58-12.6,15.86-18.9,2.49-2.96,5.05-5.88,7.45-8.91s4.22-6.04,4.3-9.87c.04-1.78-1.9-3.43-3.67-2.8-4.61,1.64-8.31,4.7-11.79,8.06s-6.6,6.77-9.58,10.44c-6.08,7.47-11.31,15.58-15.51,24.25-1.44,2.96,2.03,5.75,4.56,3.52,4.14-3.66,7.44-8.1,10.66-12.56,3.38-4.68,6.75-9.36,10.02-14.12,3.28-4.77,6.44-9.63,9.35-14.63,1.35-2.33,2.56-4.74,3.93-7.05,.94-1.59,2-3.23,3.89-3.68-1.09-1.42-2.18-2.84-3.28-4.26-8.88,15.13-21.15,27.82-31.76,41.69-3,3.92-5.85,7.94-8.47,12.12-1.78,2.84,2.21,5.76,4.56,3.52,15.53-14.89,28.87-31.82,42.14-48.7l-4.95-2.05c-.05,2.01-1.14,3.71-2.28,5.3-1.41,1.97-3.01,3.82-4.54,5.69-3.34,4.11-6.73,8.17-10.15,12.21-6.84,8.08-13.82,16.04-20.79,24.01-2.44,2.79,1.5,6.83,4.1,4.1,13.9-14.6,27.81-29.2,41.71-43.79l-4.1-4.1c-11.18,13.21-22.47,26.33-34.53,38.76,1.37,1.37,2.74,2.74,4.1,4.1,11.87-12.96,23.9-25.89,37.83-36.69-1.37-1.37-2.74-2.74-4.1-4.1-14.12,13.2-27.74,26.92-40.83,41.14-2.53,2.75,1.38,6.68,4.1,4.1,12.15-11.49,24.41-23.06,38.89-31.6-1.17-1.52-2.34-3.04-3.52-4.56-10.73,9.57-21.45,19.14-32.18,28.7-1.17,1.04-1.06,3.04,0,4.1,1.18,1.18,2.91,1.02,4.1,0,9.84-8.4,19.73-16.8,30.91-23.39-1.17-1.52-2.34-3.04-3.52-4.56-11.32,9.02-22.64,18.04-33.97,27.06-2.57,2.04,.79,6.38,3.52,4.56,11.04-7.37,22.3-14.88,35.16-18.67l-2.24-5.3c-8.81,5.54-18.04,10.36-27.62,14.42-1.31,.56-1.7,2.45-1.19,3.62,.62,1.42,1.95,1.91,3.42,1.68,11.21-1.77,22.05-5.04,32.43-9.6,3-1.32,.87-6.34-2.24-5.3-5.81,1.94-11.62,3.87-17.43,5.81-3.53,1.18-2.12,6.45,1.54,5.59,6.3-1.47,12.47-3.89,17.99-7.26,2.76-1.68,5.06-4.01,5.13-7.44s-1.2-6.85-1.95-10.03c-.66-2.78-4.91-2.75-5.59,0-.9,3.62-1.51,7.32-1.82,11.04-.25,2.97-.53,6.92,2.66,8.49,1.33,.65,3.24,.45,3.97-1.04,2.1-4.26,3.31-10.5,.68-14.83-1.29-2.12-3.82-3.25-6.2-2.39-2.24,.8-3.61,3.09-4,5.34-.81,4.77,1.81,10.28,5.84,12.9,4.74,3.08,9.55-3.33,11.44-7.08,1.21-2.39-.77-4.68-3.28-4.26-3.3,.55-6.16,2.68-7.81,5.56l5.3,.69c-2.86-8.79-5.56-17.62-8.09-26.51-.58-2.02-3.35-2.93-4.85-1.28-1.68,1.84-2.87,4.01-3.32,6.48-.28,1.54,.42,3.13,2.03,3.57,1.41,.39,3.29-.48,3.57-2.03s.8-2.79,1.83-3.92l-4.85-1.28c2.54,8.89,5.23,17.72,8.09,26.51,.75,2.31,4.02,2.94,5.3,.69,.97-1.7,2.43-2.58,4.34-2.89l-3.28-4.26c-.58,1.15-1.24,2.25-2.11,3.21-.46,.51-.95,1-1.47,1.45-.09,.08-.55,.37-.57,.47,.19-.89,1.44,.74,.65-.13-1.61-1.78-2.97-3.39-3.11-5.93-.02-.32,.3-1.87,.33-1.84,0,0-.87-.02-.78-.11,.05-.05,.3,.74,.33,.83,.75,2.61,.15,5.74-1.02,8.12l3.97-1.04s.08,.19,.08,.18c.06-.34-.03-.77-.03-1.13,.03-1.4,.17-2.82,.33-4.21,.29-2.64,.81-5.24,1.45-7.82h-5.59c.61,2.58,1.59,5.36,1.74,8.01,.11,2.08-2.47,3.07-4,3.92-4.67,2.59-9.66,4.45-14.86,5.67,.51,1.86,1.03,3.73,1.54,5.59,5.81-1.94,11.62-3.87,17.43-5.81l-2.24-5.3c-9.89,4.35-20.38,7.34-31.05,9.02,.75,1.77,1.49,3.53,2.24,5.3,9.58-4.06,18.81-8.88,27.62-14.42,2.72-1.71,1.01-6.26-2.24-5.3-13.36,3.93-25.07,11.6-36.54,19.25,1.17,1.52,2.34,3.04,3.52,4.56,11.32-9.02,22.64-18.04,33.97-27.06,2.61-2.08-.74-6.19-3.52-4.56-11.6,6.83-21.88,15.58-32.09,24.3,1.37,1.37,2.74,2.74,4.1,4.1,10.73-9.57,21.45-19.14,32.18-28.7,2.48-2.22-.71-6.21-3.52-4.56-14.9,8.78-27.57,20.68-40.07,32.51l4.1,4.1c13.09-14.22,26.71-27.94,40.83-41.14,1.14-1.07,1.08-3.02,0-4.1-1.22-1.22-2.86-.96-4.1,0-13.93,10.8-25.96,23.73-37.83,36.69-2.51,2.74,1.49,6.8,4.1,4.1,12.05-12.43,23.34-25.55,34.53-38.76,1.01-1.19,1.17-2.93,0-4.1-1.09-1.09-3.02-1.14-4.1,0-13.9,14.6-27.81,29.2-41.71,43.79,1.37,1.37,2.74,2.74,4.1,4.1,7.35-8.39,14.69-16.79,21.89-25.31,3.54-4.19,7.04-8.41,10.48-12.67,3.19-3.94,6.97-7.96,7.09-13.33,.05-2.32-3.35-4.08-4.95-2.05-13.27,16.88-26.6,33.81-42.14,48.7,1.52,1.17,3.04,2.34,4.56,3.52,9.3-14.87,21.65-27.46,32.05-41.52,2.93-3.96,5.69-8.04,8.19-12.3,1.31-2.24-.85-4.84-3.28-4.26-3.91,.93-6.28,4.3-8.09,7.64-2.21,4.08-4.52,8.09-7.01,12.02-4.93,7.78-10.32,15.24-15.71,22.7-2.89,4-5.89,7.9-9.6,11.18l4.56,3.52c3.9-8.05,8.66-15.72,14.29-22.68,2.81-3.48,5.82-6.81,9.01-9.96,2.96-2.92,6.12-6.01,10.11-7.44l-3.67-2.8c-.06,2.81-2.07,5.15-3.78,7.2-2.45,2.94-4.92,5.86-7.38,8.79-4.92,5.86-9.84,11.72-14.76,17.58-.76,.91-1.1,2.03-.6,3.17,.42,.95,1.51,1.92,2.65,1.78,3.6-.44,6.78-1.73,10.07-3.19s6.65-2.97,9.98-4.46,6.65-2.97,9.98-4.46c3.1-1.39,6.42-2.58,9.38-4.25,3.16-1.78,3.99-4.68,4.37-8.07,.31-2.79,.32-5.62,.07-8.41-.54-5.85-2.11-11.49-4.66-16.78-2.8-5.8-6.85-11.06-11.8-15.18-2.83-2.36-6.73,1.36-4.1,4.1,2.91,3.03,5.36,6.4,7.71,9.87,2.4,3.55,4.79,7.11,7.01,10.77,4.34,7.19,7.96,14.78,10.81,22.67,.89,2.48,4.95,3.02,5.59,0,.86-4.08-2.5-5.92-4.63-8.75-1.77-2.36-2.97-5.12-4.06-7.84-1.2-2.98-2.32-6-3.84-8.84-1.7-3.18-4.07-5.83-6.52-8.45s-4.33-5.47-6.27-8.51c-2.08-3.25-4.59-5.99-7.63-8.36s-6.04-4.41-9.21-6.35c-3.37-2.06-6.97-3.35-10.82-4.19-9.19-2.01-18.43-3.79-27.64-5.67l-.77,5.7c9.45,.84,18.84,3.2,27.57,6.92,4.36,1.86,8.58,4.07,12.6,6.57,2.03,1.26,4.01,2.6,5.94,4.02,1.65,1.21,3.31,2.47,4.25,4.33,.49,.95,.86,1.97,1.46,2.86,.74,1.11,1.68,1.99,2.69,2.84,1.87,1.57,3.61,3.26,5.16,5.15,1.43,1.75,2.65,3.69,3.68,5.7,1.12,2.16,2.05,4.37,3.52,6.33,1.34,1.79,2.98,3.47,3.66,5.65,.72,2.33,.84,4.81,1.53,7.15s1.86,4.26,2.82,6.38c.74,1.63,1.29,3.45,.52,5.17-2.04,4.57-8.68,5.34-12.9,6.42-6.05,1.54-12.1,3.07-18.15,4.61-3.08,.78-2.55,6.07,.77,5.7,11.59-1.29,22.36-5.5,33.07-9.87,1.45-.59,2.48-1.93,2.03-3.57s-2.03-2.35-3.57-2.03c-13.4,2.83-26.81,5.67-40.21,8.5-2.95,.62-5.93,1.44-8.92,1.84-1.56,.21-3.87,.41-4.73-.93-.68-1.07-.85-2.5-1.42-3.65s-1.45-2.24-2.41-3.1c-2.07-1.84-4.53-2.97-7.08-3.97-3.28-1.29-6.64-2.54-10.1-3.25-3.85-.79-7.66-.81-11.53-.23-1.55,.23-2.41,2.19-2.03,3.57,.46,1.66,2.01,2.26,3.57,2.03h0Z"/>
    <path class="cls-3" d="M78.6,74.63l29.35,9.64,.77-5.7c-8.56,.78-17.1-.95-24.62-5.15l-1.46,5.41c8.86,.4,17.61,1.81,26.16,4.18,.51-1.86,1.03-3.73,1.54-5.59-11.4-2.03-22.77-4.29-34.08-6.76l-.77,5.7c12.59,.97,25.14,2.4,37.62,4.32,1.43,.22,2.84-.24,3.42-1.68,.49-1.23,.14-3.01-1.19-3.62-12.24-5.62-25.93-5.67-38.55-10.02-.51,1.86-1.03,3.73-1.54,5.59,14.65,2.23,29.23,4.84,43.74,7.84,1.41,.29,2.86-.29,3.42-1.68,.48-1.2,.16-3.05-1.19-3.62-13.39-5.73-27.64-8.43-41.9-10.98l-.77,5.7c14.65-.18,28.75,4.2,42.6,8.52,1.37,.43,2.9-.39,3.42-1.68,.57-1.42,.02-2.76-1.19-3.62-12.16-8.66-28.39-7.33-40.67-15.61l-2.24,5.3c12.07,2.8,24.35,5.42,36.76,3.41,2.74-.45,2.8-5.21,0-5.59-12.12-1.65-24.32-2.34-36.55-1.95l.77,5.7c8.06-1.12,16.14-2.23,24.28-2.65,3.99-.21,7.99-.25,11.97-.04,2.08,.11,4.19,.24,6.25,.53,.55,.08,1.14,.16,1.66,.36,.28,.11,.59,.44,.53,.23l2.8-3.67c-12.46-.69-24.76-2.97-36.67-6.72-3.07-.97-5.3,4.01-2.24,5.3,12.13,5.13,24.7,9.03,37.64,11.52l-.69-5.3c-3.94,1.97-8.59,1.18-12.74,.45-4.98-.88-9.87-1.78-14.93-1.03-2.45,.36-2.82,4.26-.69,5.3,8.48,4.14,17.85,2.11,26.49-.42,2.95-.86,2.55-4.58,0-5.59-3.65-1.45-7.68-2.08-11.6-1.7-1.83,.18-3.83,.42-5.22,1.77s-1.87,3.42-1.1,5.25c1.49,3.5,5.6,4.39,9.01,4.57,3.82,.2,7.57-.72,10.99-2.38,1.7-.83,1.83-3.32,.59-4.56-2.13-2.11-4.9-3.16-7.78-3.81-3.34-.76-6.72-1.37-10.1-1.92-6.89-1.13-13.82-1.94-20.79-2.41v5.8c6.04,.37,12.11,.31,18.14-.21,3.04-.27,6.09-.63,9.11-1.13,2.66-.44,5.05-1.27,7.13-3.03s.2-4.73-2.05-4.95c-12.98-1.26-26.18,2.05-39.05-.63l2.03,2.03,.06,.1-.4,1.46s.33-.19,.61-.28c.77-.26,1.59-.43,2.37-.63,1.59-.4,3.19-.76,4.79-1.08,3.23-.64,6.48-1.11,9.76-1.39,6.62-.58,13.29-.46,19.89,.31l-.77-5.7c-11.69,2.62-23.48,4.75-35.35,6.39,.51,1.86,1.03,3.73,1.54,5.59,15.11-2.93,30.51-4.11,45.9-3.6l-.77-5.7c-11.23,3.14-22.76,4.84-34.42,5.07l1.46,5.41c2.17-1.28,4.66-1.77,7.13-2.05,3.15-.36,6.31-.64,9.47-.95,6.42-.64,12.84-1.28,19.26-1.91,1.43-.14,2.67-.99,2.85-2.52,.15-1.3-.64-2.95-2.08-3.18-9.68-1.6-19.44-1.46-29.06,.47-1.4,.28-2.28,1.85-2.08,3.18,.23,1.54,1.37,2.33,2.85,2.52,9.85,1.21,19.89-.77,28.65-5.4,1.86-.98,1.93-4.05,0-5.01-6.69-3.33-14.37-1.12-21.26,.38-7.7,1.67-15.34,3.63-22.97,5.58-3.62,.93-2.09,6.5,1.54,5.59,13.96-3.47,27.92-6.93,41.88-10.4,3.11-.77,2.54-5.93-.77-5.7-14.1,.99-28.19,2.18-42.25,3.59l.77,5.7c13.32-4.85,26.64-9.71,39.97-14.56,1.47-.54,2.47-1.97,2.03-3.57-.4-1.47-2.07-2.5-3.57-2.03-12.01,3.8-23.65,8.75-34.71,14.79l2.93,5.01c10.13-6.2,20.07-12.72,29.79-19.54,1.6-1.12,2.15-4.02,0-5.01-2.88-1.33-5.27-.26-7.89,1.12s-5.24,2.76-7.86,4.15c-5.16,2.72-10.31,5.44-15.47,8.16l2.93,5.01c8.63-5.67,17.26-11.34,25.88-17.02,3.14-2.06,.42-6.65-2.93-5.01-7.88,3.86-15.76,7.71-23.65,11.57l2.93,5.01c6.22-4.54,12.43-9.08,18.65-13.62,1.26-.92,1.89-2.52,1.04-3.97s-2.6-1.81-3.97-1.04c-6.82,3.8-13.63,7.61-20.45,11.41l3.52,4.56c4.99-4.15,9.97-8.3,14.96-12.46,1.1-.91,1.05-2.77,.23-3.81-.98-1.22-2.37-1.33-3.74-.75-5.48,2.32-10.77,5.03-15.86,8.11,1.17,1.52,2.34,3.04,3.52,4.56,4.17-4.2,8.69-8.01,13.56-11.37l-2.93-5.01c-5.46,3.91-11.09,7.59-16.88,11.01,1.17,1.52,2.34,3.04,3.52,4.56,4.65-4.77,9.74-9.05,15.26-12.78,3.11-2.1,.43-6.64-2.93-5.01-4.42,2.14-8.84,4.29-13.26,6.43l4.26,3.28c.81-1.98,2.2-3.6,3.84-4.94,2.64-2.16-.73-6.05-3.52-4.56-2.93,1.57-5.87,3.14-8.8,4.71l4.26,3.28c.53-1.33,1.44-2.39,2.5-3.33,2.2-1.93-.13-5.66-2.82-4.85-1.83,.55-3.54,1.36-5.07,2.5-1.26,.93-1.89,2.51-1.04,3.97,.78,1.33,2.63,1.86,3.97,1.04,2.9-1.78,5.29-4.17,7.06-7.08,1.53-2.52-1.49-5.39-3.97-3.97s-4.8,2.53-7.36,3.47c-1.28,.47-2.64,1.01-3.99,1.28s-.7-.27,.46,2.06c.02,.05-.25,.43-.19,.43,.13,0,.4-.23,.53-.29,2.42-1.03,5.44-1.41,8.04-1.76,2.74-.38,5.52-.51,8.28-.43,9.86,.29,19.47,3.92,26.36,11.11,3.47,3.62,6.03,7.99,7.35,12.84l4.26-3.28c-8.61-6.52-17.73-12.33-27.27-17.37l-2.24,5.3c8.59,2.5,17.74,5.11,24.09,11.8,2.46,2.6,5.02,6.35,5.27,10.05-.02-.25,.08,.26,0,.14,.71,.92-.35,.2-.02,.21l.44-.31c.22-.27,.49-.38,.82-.32,.53-.23,.38,.11,.03-.24-.2-.2-.6-.38-.86-.54-.58-.35-1.16-.69-1.75-1.03-2.06-1.16-4.2-2.15-6.38-3.06-5.03-2.08-10.28-3.33-15.68-3.94l.77,5.7c8.72-1.83,17.63-2.31,26.5-1.55l-.77-5.7c-10.55,4.12-21.3,7.71-32.21,10.73l3.67,2.8c.08-.75,2.48-1.56,3.13-1.81,2.07-.8,4.19-1.47,6.34-2.03,4.33-1.12,8.73-1.68,13.2-1.74l-1.46-5.41c-9.87,4.64-19.94,8.84-30.18,12.6l2.24,5.3c5.33-2.81,10.66-5.61,15.99-8.42,2.61-1.38,5.32-2.65,7.87-4.14s4.31-4.74,1.79-7.17c-.91-.87-2.16-1.14-3.36-1.36-1.57-.29-3.16-.49-4.75-.6-2.76-.2-5.54-.09-8.29,.25-5.71,.71-11.21,2.28-16.53,4.46-5.95,2.44-11.63,5.45-17.3,8.49,1.17,1.52,2.34,3.04,3.52,4.56,3.58-3.69,7.12-7.41,10.23-11.51,1.52-2,2.92-4.1,4.11-6.31,1.09-2.02,2.1-4.2,1.77-6.56-.37-2.64-2.61-4.49-5.27-4.47-2.45,.02-4.96,1.08-7.17,2.03-4.4,1.9-8.36,4.81-11.52,8.41-.95,1.08-1.16,2.64-.23,3.81,.85,1.06,2.53,1.57,3.74,.75,6.76-4.59,13.66-9.43,17.81-16.67,.64-1.12,.46-2.6-.45-3.52-.99-.99-2.31-.97-3.52-.45-7.17,3.07-13.56,7.92-18.47,13.99-2.38,2.94,1.16,6.38,4.1,4.1,3.39-2.63,6.78-5.25,10.17-7.88,1.62-1.26,3.24-2.52,4.87-3.77,1.22-.93,2.61-2.12,4.2-2.18l-2.5-4.37c-3.29,5.87-7.09,11.69-9.64,17.93s-2.18,12.68,3.05,17.12c4.77,4.05,10.9,5.93,16.97,6.94,6.64,1.11,13.4,1.58,20.13,1.38,7.7-.23,15.39-1.31,22.86-3.18,2.05-.51,2.9-3.39,1.28-4.85-10.28-9.29-20.65-18.6-32.4-26.02-2.73-1.73-6.07,2.42-3.52,4.56,4.63,3.87,9.48,7.85,12.46,13.2,1.53,2.73,2.41,5.75,4.37,8.24,1.93,2.45,5.04,4.32,8.25,3.9,1.55-.2,2.9-1.19,2.9-2.9,0-1.41-1.34-3.1-2.9-2.9-2.41,.31-3.86-1.59-4.88-3.54-1.37-2.59-2.33-5.32-3.99-7.76-3.27-4.82-7.68-8.63-12.11-12.34-1.17,1.52-2.34,3.04-3.52,4.56,11.34,7.16,21.31,16.15,31.22,25.12,.43-1.62,.85-3.23,1.28-4.85-11.73,2.94-23.91,3.74-35.92,2.36-5.37-.62-11.01-1.56-15.77-4.25-2.02-1.14-4.18-2.63-5.11-4.85-.97-2.32-.34-4.93,.47-7.19,1.06-2.97,2.77-5.69,4.3-8.43,1.74-3.1,3.48-6.2,5.21-9.3,1.04-1.85-.25-4.45-2.5-4.37-4.71,.18-8.3,3.87-11.82,6.6-3.84,2.98-7.68,5.95-11.52,8.93l4.1,4.1c4.64-5.75,10.5-10.17,17.29-13.08l-3.97-3.97c-3.65,6.35-9.8,10.56-15.73,14.59,1.17,1.52,2.34,3.04,3.52,4.56,2.45-2.79,5.32-5.05,8.64-6.71,1.53-.77,3.13-1.36,4.79-1.81,.49-.13,1.64-.08,.84-.56-.35-.21,.15-.5-.13,.12-.13,.29-.16,.65-.28,.96-1.29,3.34-3.74,6.51-5.99,9.25-2.57,3.13-5.39,6.04-8.21,8.95-2.32,2.39,.61,6.12,3.52,4.56,6.94-3.73,13.92-7.52,21.44-9.95,3.67-1.19,7.47-2.09,11.32-2.41,1.96-.16,3.92-.2,5.88-.09,.9,.05,1.79,.12,2.68,.25,.53,.08,1.06,.17,1.58,.28l.53,.11c.49,.14,.49,.12-.01-.08l-.75-1.28c.51-1.11,.59-1.49,.24-1.13l-.35,.2c-.56,.1-1.27,.67-1.78,.94-1.02,.53-2.03,1.07-3.05,1.6-2.12,1.11-4.23,2.23-6.35,3.34-4.23,2.23-8.46,4.46-12.69,6.68-2.86,1.51-.89,6.45,2.24,5.3,10.71-3.93,21.25-8.33,31.57-13.18,2.67-1.26,1.28-5.44-1.46-5.41-5.67,.08-11.36,.9-16.79,2.52-4.73,1.41-11.03,3.13-11.68,8.86-.22,1.91,2.02,3.25,3.67,2.8,10.91-3.02,21.66-6.61,32.21-10.73,3.05-1.19,2.59-5.41-.77-5.7-9.38-.81-18.82-.18-28.04,1.75-1.4,.29-2.28,1.84-2.08,3.18,.23,1.53,1.37,2.35,2.85,2.52,5.16,.58,10.34,1.99,15.07,4.15,2.45,1.12,4.67,2.55,7.03,3.84,2.66,1.46,5.69,.54,6.72-2.4,.77-2.21,.15-4.7-.59-6.84-.81-2.32-1.94-4.51-3.39-6.49-3.02-4.12-6.99-7.4-11.47-9.83-5.58-3.02-11.71-4.84-17.77-6.61-3.12-.91-5.18,3.75-2.24,5.3,9.55,5.05,18.66,10.86,27.27,17.37,2.11,1.6,4.87-1.03,4.26-3.28-3.16-11.64-12.37-20.68-23.42-25.08-6.3-2.51-13.27-3.43-20.03-3.08-3.54,.18-7.08,.69-10.53,1.5-2.99,.7-6.84,1.58-7.63,5.07-.48,2.12,.93,4.21,2.95,4.85,1.75,.56,3.61,0,5.29-.52,3.9-1.21,7.68-2.87,11.22-4.89l-3.97-3.97c-1.25,2.07-2.92,3.74-4.98,5l2.93,5.01c1.14-.85,2.32-1.5,3.69-1.91l-2.82-4.85c-1.85,1.63-3.09,3.61-3.99,5.89-1,2.51,2.24,4.36,4.26,3.28,2.93-1.57,5.87-3.14,8.8-4.71-1.17-1.52-2.34-3.04-3.52-4.56-2.45,2.01-4.15,4.59-5.33,7.5-1.05,2.58,2.25,4.25,4.26,3.28,4.42-2.14,8.84-4.29,13.26-6.43l-2.93-5.01c-5.93,4-11.45,8.57-16.44,13.68-2.28,2.34,.64,6.26,3.52,4.56,5.78-3.42,11.41-7.09,16.88-11.01,1.27-.91,1.88-2.53,1.04-3.97-.75-1.28-2.67-1.93-3.97-1.04-5.28,3.63-10.22,7.73-14.74,12.28-2.3,2.31,.66,6.29,3.52,4.56,5.09-3.08,10.39-5.78,15.86-8.11-1.17-1.52-2.34-3.04-3.52-4.56-4.99,4.15-9.97,8.3-14.96,12.46-2.59,2.16,.72,6.11,3.52,4.56,6.82-3.8,13.63-7.61,20.45-11.41l-2.93-5.01c-6.22,4.54-12.43,9.08-18.65,13.62-2.99,2.19-.47,6.67,2.93,5.01,7.88-3.86,15.76-7.71,23.65-11.57l-2.93-5.01c-8.63,5.67-17.26,11.34-25.88,17.02-3.12,2.05-.39,6.76,2.93,5.01,4.48-2.36,8.96-4.73,13.44-7.09,2.2-1.16,4.4-2.32,6.59-3.48,1.1-.58,2.2-1.16,3.3-1.74,.47-.25,.94-.54,1.44-.75,.25-.11,1-.19,.6-.37v-5.01c-9.72,6.82-19.66,13.34-29.79,19.54-3.19,1.95-.36,6.8,2.93,5.01,10.63-5.8,21.77-10.56,33.32-14.21-.51-1.86-1.03-3.73-1.54-5.59-13.32,4.85-26.64,9.71-39.97,14.56-1.35,.49-2.3,1.69-2.08,3.18,.2,1.3,1.39,2.66,2.85,2.52,14.07-1.41,28.15-2.6,42.25-3.59l-.77-5.7c-13.96,3.47-27.92,6.93-41.88,10.4,.51,1.86,1.03,3.73,1.54,5.59,7.08-1.81,14.17-3.63,21.3-5.22,3.36-.75,6.75-1.54,10.15-2.04,2.73-.4,5.76-.55,8.3,.71v-5.01c-7.9,4.18-16.87,5.69-25.72,4.6l.77,5.7c8.53-1.71,17.39-1.89,25.97-.47l.77-5.7c-6.8,.68-13.61,1.35-20.41,2.03-6.08,.6-12.96,.49-18.38,3.68-2.44,1.44-1.45,5.46,1.46,5.41,12.15-.24,24.26-2.01,35.97-5.28,3.19-.89,2.48-5.59-.77-5.7-15.9-.53-31.82,.77-47.44,3.8-1.54,.3-2.42,2.14-2.03,3.57,.46,1.67,2.01,2.24,3.57,2.03,11.87-1.64,23.66-3.78,35.35-6.39,1.39-.31,2.28-1.83,2.08-3.18-.23-1.53-1.37-2.34-2.85-2.52-7.78-.9-15.64-.9-23.42,.06-3.87,.48-7.72,1.14-11.51,2.05-3.46,.83-8.85,1.95-7.77,6.75,.21,.93,1.09,1.83,2.03,2.03,13.45,2.81,27.05-.48,40.59,.84-.68-1.65-1.37-3.3-2.05-4.95-1.58,1.35-4.18,1.49-6.14,1.78-2.55,.37-5.12,.63-7.69,.82-5.47,.4-10.97,.41-16.45,.08-1.57-.1-2.9,1.4-2.9,2.9,0,1.66,1.33,2.79,2.9,2.9,6.26,.43,12.49,1.11,18.68,2.11,3.08,.5,6.15,1.07,9.21,1.7,2.33,.49,4.92,.9,6.67,2.63,.2-1.52,.39-3.04,.59-4.56-1.89,.92-3.99,1.48-6.1,1.59-1.05,.05-2.11,.04-3.15-.1-.56-.08-1.21-.16-1.73-.4-.14-.06-.47-.38-.63-.41-.07-.15-.12-.19-.15-.13,.12,.31,.1,.64-.06,.99,.13,.33-.42,.27,.45,.14,1.15-.17,2.33-.2,3.5-.17,2.48,.08,4.86,.67,7.16,1.59v-5.59c-6.92,2.02-15.13,4.36-22.02,1l-.69,5.3c4.71-.7,9.53,.71,14.15,1.42,5.13,.79,10.15,.95,14.91-1.42,2.16-1.08,1.72-4.84-.69-5.3-12.41-2.39-24.61-6.02-36.26-10.94l-2.24,5.3c12.39,3.9,25.24,6.21,38.21,6.93,1.86,.1,3.32-1.94,2.8-3.67-1.31-4.31-5.98-4.7-9.78-5.07-4.64-.45-9.3-.53-13.96-.37-9.42,.33-18.78,1.65-28.11,2.95-1.41,.2-2.27,1.92-2.08,3.18,.21,1.38,1.38,2.56,2.85,2.52,11.69-.38,23.42,.16,35,1.74v-5.59c-11.29,1.84-22.72-.87-33.68-3.41-3.26-.76-4.96,3.46-2.24,5.3,12.32,8.31,28.58,6.99,40.67,15.61,.75-1.77,1.49-3.53,2.24-5.3-14.33-4.47-28.97-8.92-44.14-8.73-3.15,.04-4.1,5.1-.77,5.7,13.7,2.45,27.65,4.89,40.51,10.39l2.24-5.3c-14.51-3-29.09-5.61-43.74-7.84-3.64-.55-5.15,4.35-1.54,5.59,12.1,4.17,25.45,4.05,37.16,9.43l2.24-5.3c-12.99-2-26.05-3.52-39.16-4.52-3.25-.25-3.96,5-.77,5.7,11.32,2.47,22.68,4.72,34.08,6.76,1.54,.27,3.13-.42,3.57-2.03,.42-1.52-.51-3.15-2.03-3.57-9.03-2.5-18.34-3.97-27.7-4.39-2.89-.13-3.92,4.03-1.46,5.41,8.35,4.67,18.01,6.81,27.54,5.95,3.21-.29,4-4.64,.77-5.7l-29.35-9.64c-3.56-1.17-5.08,4.43-1.54,5.59h0Z"/>
    <path class="cls-3" d="M123.19,90.61c-.03,.66,.18-.62,.01,.02-.03,.13-.07,.26-.1,.38-.15,.59,.31-.48-.02,.04-.09,.14-.18,.28-.26,.42-.16,.28,.46-.45,.02-.04-.09,.08-.39,.51-.15,.17,.22-.31-.06,.04-.19,.12-.17,.1-.35,.18-.53,.26-1.32,.57-1.69,2.43-1.19,3.62,.58,1.37,1.99,1.99,3.42,1.68,3.65-.79,7.18-2.21,10.38-4.13,1.3-.78,1.9-2.64,1.04-3.97-.9-1.39-2.51-1.77-3.97-1.04-3.33,1.66-6.12,4.24-8.68,6.91-1.26,1.32-1.08,3.64,.59,4.56,2.89,1.59,5.64-.16,8.21-1.51,2.25-1.18,4.49-2.36,6.74-3.54,1.35-.71,1.86-2.69,1.04-3.97-.88-1.37-2.53-1.8-3.97-1.04-1.93,1.01-3.86,2.03-5.8,3.04-.95,.5-1.89,1-2.84,1.49-.2,.11-.41,.2-.61,.31-.19,.09-.14,.07,.17-.07-.1,.04-.21,.08-.32,.11-.1,.03-.21,.06-.32,.09,.38-.03,.46-.05,.24-.04-.23,0-.14,.02,.26,.06-.3-.09-.26-.07,.12,.06,.2,1.52,.39,3.04,.59,4.56,1.18-1.23,2.38-2.43,3.69-3.52,.15-.12,.3-.25,.45-.37,.24-.19,.32-.32,.05-.04,.31-.31,.76-.56,1.13-.8,.7-.47,1.44-.89,2.19-1.27l-2.93-5.01c-.73,.44-1.48,.85-2.24,1.23-.36,.18-.73,.36-1.1,.52-.18,.08-.37,.17-.56,.25,.62-.27-.13,.05-.21,.08-1.59,.62-3.23,1.11-4.89,1.47l2.24,5.3c2.49-1.08,3.99-3.74,4.09-6.38,.06-1.52-1.38-2.97-2.9-2.9-1.62,.07-2.84,1.27-2.9,2.9h0Z"/>
    <path class="cls-3" d="M44.67,51.39c-10.31,5.16-18.97,13.38-24.74,23.35-1.71,2.96,2.12,5.6,4.56,3.52,4.83-4.14,9.5-8.46,14.14-12.8,4.17-3.91,8.68-7.8,11.2-13.04,.87-1.8,.11-3.56-1.73-4.26-3.88-1.47-7.75,1.58-10.71,3.75s-5.74,4.51-8.3,7.11c-5.06,5.12-9.29,11.08-12.45,17.55-.53,1.08-.57,2.66,.45,3.52,2.86,2.39,6.21,1.24,8.74-1.05s4.53-4.81,6.46-7.44,3.72-5.27,4.89-8.19c1.26-3.12,.27-7.39-3.75-7.53-2.96-.1-6.18,2.21-8.55,3.8s-4.73,3.48-6.81,5.53-3.96,4.32-5.63,6.73-3.41,5.11-4.28,7.9,.18,6.65,3.66,6.85c1.59,.09,2.98-.68,4.34-1.4s2.7-1.53,3.98-2.39c5.17-3.5,9.63-7.95,13.1-13.14,1.63-2.43,3.08-5.83,.7-8.32s-6.44-.78-8.96,.75c-4.94,3-8.32,7.91-11.16,12.82-1.68,2.92-4.42,7.14-1.27,10.11,2.91,2.75,6.79,.65,9.31-1.47,5.48-4.61,9.54-10.65,12.1-17.31,.61-1.59-.7-3.01-2.03-3.57-4.79-2.01-9.63,3.07-12.43,6.34-1.56,1.82-2.98,3.78-4.17,5.86s-2.81,4.78-1.46,7.12c1.56,2.71,4.55,2.1,6.89,.97,2.01-.97,3.95-2.09,5.8-3.34,3.77-2.55,7.24-5.58,10.19-9.05,1.55-1.82,3.02-3.75,4.29-5.78,1.16-1.85,1.84-4.44,.32-6.31-2.02-2.49-4.94-1.18-7.12,.28-1.88,1.25-3.67,2.69-5.27,4.28-3.19,3.16-5.75,6.95-7.5,11.08-.93,2.2-2.06,4.8-.8,7.12,1.05,1.93,3.16,2.76,5.28,2.71,2.47-.06,4.76-1.22,6.91-2.34,2.48-1.29,4.79-2.84,6.98-4.58,4.12-3.26,8.42-7.55,9.31-12.95,.43-2.61-1.87-4.35-4.26-3.28-9.05,4.06-16.62,11.29-21.15,20.11-1.12,2.18,.74,4.99,3.28,4.26,11.08-3.16,19.55-11.38,26.79-19.97,.92-1.09,1.31-3.06,0-4.1-4.06-3.23-8.99-.15-12.44,2.56s-6.1,6.21-7.69,10.2c-.93,2.33-.75,5.24,1.57,6.71,1.97,1.25,4.37,.87,6.4-.03,4-1.77,7.72-4.68,10.83-7.73,1.65-1.62,3.14-3.38,4.52-5.22,1.47-1.96,3.08-4.47,1.57-6.91-2.73-4.42-8.44-.77-11.39,1.3-3.54,2.49-6.68,5.44-9.34,8.86-1.35,1.74-2.59,3.56-3.66,5.5s-2.46,4.28-2.38,6.59c.09,2.5,2,4.51,4.38,5.07s4.8-.45,6.94-1.57c3.97-2.09,7.69-4.58,11.21-7.35s6.77-5.85,9.69-9.23c1.52-1.75,2.96-3.58,4.32-5.46,1.22-1.69,2.26-3.52,2.4-5.64,.16-2.26-.99-4.36-3.13-5.21-2.49-1-4.94,.26-6.88,1.81-3.52,2.82-6.56,6.28-9.13,9.97-1.27,1.82-2.41,3.73-3.42,5.71s-2.03,3.97-2.52,6.07-.42,4.55,1.14,6.24c1.88,2.03,4.62,1.89,6.96,.82,3.92-1.8,7.57-4.92,10.65-7.89s5.98-6.58,8.29-10.34c1.97-3.21,4.97-8.29,1.5-11.59-3.85-3.67-9.59,1.44-12.55,3.98-3.29,2.83-6.12,6.29-8.28,10.06-1.09,1.89-2.37,4.07-2.61,6.26-.29,2.55,1.29,4.84,3.74,5.59,4.59,1.41,8.59-2.93,11.64-5.73,3.42-3.14,6.58-6.56,9.43-10.22,1.48-1.89,2.9-3.83,4.23-5.83,1.23-1.85,2.63-3.81,3.08-6.03,.5-2.45-.25-5.09-2.54-6.37-2.15-1.2-4.67-.65-6.77,.34-3.85,1.81-7.44,4.86-10.56,7.7s-6.16,6.33-8.72,9.93-4.97,7.41-6.31,11.48c-.76,2.29-.45,5.09,1.74,6.5s5.15,.84,7.43-.14c4.17-1.8,7.93-5.12,11.33-8.08,3.49-3.04,6.72-6.37,9.66-9.95,2.9-3.54,5.98-7.37,7.83-11.59,.93-2.13,1.81-4.88,1.16-7.22-.74-2.66-3.45-3.76-5.93-2.83-2.13,.8-3.97,2.63-5.69,4.08s-3.4,2.99-5.01,4.59c-3.27,3.26-6.26,6.79-8.99,10.52-1.34,1.83-2.6,3.71-3.78,5.64s-2.56,4.01-3.28,6.21-.34,4.86,1.46,6.51c2.13,1.96,5.06,1.3,7.23-.18,7.52-5.11,13.96-11.94,18.87-19.57,1.96-3.04,5.29-8.58,.66-11.07-.87-.47-2.07-.59-2.93,0-11.1,7.63-20.47,17.52-27.43,29.06-1.43,2.37,1.54,5.7,3.97,3.97,7.74-5.49,14.19-12.56,18.84-20.84,1.04-1.86-.25-4.44-2.5-4.37-5.05,.17-8.98,3.66-12.89,6.46-4.38,3.13-8.76,6.26-13.14,9.4-3.81,2.73-7.68,6.13-12.07,7.9-2.06,.84-4.1,1.03-6.3,.69-2.52-.39-5-1.01-7.57-.74-3.2,.34-4.01,4.6-.77,5.7,6.77,2.3,13.71,4,20.76,5.11,2.41,.38,4.62-1.89,3.28-4.26-1.96-3.48-6.4-5.27-10.19-3.86-3.45,1.28-2.14,6.51,1.54,5.59,4.94-1.23,9.94-2.01,15.02-2.31l-1.46-5.41c-2.45,1.28-4.89,2.56-7.34,3.84l2.93,5.01c3.12-2.17,6.95-3.16,9.44-6.2,1.23-1.51,2.19-3.22,3.26-4.84,1.23-1.88,2.53-3.72,3.88-5.51,4.71-6.25,10.15-11.94,15.56-17.57,5.48-5.71,11.03-11.37,16.07-17.48,1.33-1.62,2.63-3.27,3.89-4.95,1.06-1.42,1.91-2.99,1.85-4.83-.07-2.08-1.62-3.8-3.71-3.96-2.31-.17-4.78,1.47-6.79,2.49-8.31,4.24-15.86,9.76-23.37,15.26,1.17,1.52,2.34,3.04,3.52,4.56,4.47-4.09,8.94-8.18,13.41-12.27,3.96-3.62,8.04-7.17,10.88-11.79,1.63-2.65-1.5-5.14-3.97-3.97-11.01,5.22-21.16,12.11-30.16,20.32-2.4,2.19,.76,6.41,3.52,4.56,10.28-6.93,20.14-14.48,29.54-22.57,2.19-1.89-.13-5.74-2.82-4.85-10.6,3.51-19.03,11.27-29.45,15.11l2.82,4.85c6.28-6.19,13.02-11.89,20.21-17,1.27-.91,1.88-2.53,1.04-3.97-.79-1.35-2.62-1.84-3.97-1.04-3.81,2.26-7.61,4.52-11.42,6.78,1.17,1.52,2.34,3.04,3.52,4.56,4.94-3.9,9.88-7.8,14.82-11.7l-4.1-4.1c-5.46,4.57-11.19,8.8-17.16,12.69l3.97,3.97c3.23-4.43,7.29-8.27,11.85-11.3,3.09-2.05,.37-6.84-2.93-5.01-4.25,2.36-7.86,5.72-10.58,9.76-2.36,3.5-6.25,10.61-.8,13.32,4.58,2.28,9.81-2.32,13.28-4.73,4.66-3.24,9.16-6.72,13.49-10.39,2.51-2.13-.76-6.34-3.52-4.56-8.73,5.63-16.59,12.53-23.25,20.51-2.12,2.54,.48,6.01,3.52,4.56,4.26-2.04,8.51-4.07,12.77-6.11l6.25-2.99c1.37-.66,3.64-2.37,5.2-1.75-.43-1.62-.85-3.23-1.28-4.85-7.41,6.83-14.82,13.65-22.23,20.48-2.18,2.01,.11,5.56,2.82,4.85,9.43-2.47,16.3-10.66,25.91-12.44l-2.82-4.85c-8.99,7.36-19.27,13.2-30.2,17.17l2.24,5.3c12.19-8.35,25.41-15.13,39.34-20.04l-3.28-1.33c-.73-1.07,.56-1.77-.53-.87-.59,.48-1.23,.91-1.84,1.36-1.07,.79-2.15,1.59-3.22,2.38-2.38,1.76-4.76,3.51-7.13,5.27-4.68,3.46-9.36,6.92-14.04,10.37-1.26,.93-1.89,2.51-1.04,3.97,.73,1.24,2.7,1.98,3.97,1.04,5.6-4.14,11.2-8.28,16.8-12.42,2.76-2.04,5.52-4.08,8.28-6.12,2.37-1.75,6.08-4.55,3.76-7.91-.69-1-2.02-1.78-3.28-1.33-14.41,5.08-28.12,11.99-40.73,20.63-1.19,.81-1.79,2.24-1.19,3.62,.54,1.23,2.04,2.18,3.42,1.68,11.93-4.33,22.94-10.62,32.76-18.66,.98-.8,1.06-2.49,.45-3.52-.69-1.17-2-1.57-3.28-1.33-9.73,1.81-16.5,9.98-25.91,12.44l2.82,4.85c7.41-6.83,14.82-13.65,22.23-20.48,1.76-1.62,.62-4.09-1.28-4.85-2.53-1.01-5.04,.12-7.33,1.21s-4.69,2.24-7.04,3.37c-4.78,2.29-9.55,4.57-14.33,6.86l3.52,4.56c6.34-7.61,13.75-14.23,22.07-19.6-1.17-1.52-2.34-3.04-3.52-4.56-3.33,2.83-6.76,5.53-10.32,8.08-1.84,1.32-3.71,2.6-5.6,3.84-.8,.52-1.59,1.09-2.43,1.53-.54,.28-1.1,.37-1.7,.58,0,0-.15-.15-.09-.01,0,.01,.73,.45,.46,.5,.11-.02,.51-1.49,.63-1.76,.73-1.64,1.65-3.21,2.71-4.66,2.1-2.89,4.88-5.21,7.99-6.94l-2.93-5.01c-5.44,3.62-10.08,8.11-13.93,13.38-1.73,2.37,1.63,5.5,3.97,3.97,6.38-4.16,12.49-8.71,18.33-13.6,1.2-1.01,1.04-3.06,0-4.1-1.22-1.22-2.87-.97-4.1,0-4.94,3.9-9.88,7.8-14.82,11.7-2.62,2.07,.74,6.2,3.52,4.56,3.81-2.26,7.61-4.52,11.42-6.78l-2.93-5.01c-7.59,5.4-14.75,11.37-21.38,17.91-1.96,1.93,.02,5.88,2.82,4.85,10.43-3.84,18.9-11.62,29.45-15.11l-2.82-4.85c-9.02,7.77-18.49,15-28.36,21.66,1.17,1.52,2.34,3.04,3.52,4.56,8.64-7.89,18.42-14.4,28.98-19.41l-3.97-3.97c-2.66,4.32-6.7,7.61-10.4,11-4.33,3.96-8.66,7.92-12.98,11.88-2.38,2.18,.83,6.53,3.52,4.56,4.4-3.22,8.8-6.44,13.38-9.42,2.21-1.44,4.45-2.81,6.75-4.1,1.22-.69,2.46-1.35,3.71-1.98,.89-.45,2.39-1.54,3.39-1.46l-1.46-.4-.58-.96-.04-.17c-.24,.01,.93-.9-.11,.23-.09,.1-.35,.54-.51,.75-.74,1.03-1.53,2.02-2.32,3.01-1.63,2.03-3.32,4.02-5.05,5.96-3.47,3.9-7.1,7.66-10.72,11.43-7.3,7.59-14.59,15.25-20.57,23.95-1.51,2.19-2.74,5.12-4.86,6.79s-4.76,2.42-6.94,3.94c-3.04,2.11-.42,6.76,2.93,5.01,2.45-1.28,4.89-2.56,7.34-3.84s1.4-5.57-1.46-5.41c-5.58,.33-11.13,1.16-16.56,2.52l1.54,5.59c1.39-.52,2.84-.21,3.64,1.2l3.28-4.26c-7.06-1.11-14-2.81-20.76-5.11l-.77,5.7c2.42-.26,4.7,.36,7.07,.69,2.51,.35,4.99,.26,7.43-.52,4.66-1.5,8.56-4.66,12.48-7.47,4.38-3.13,8.76-6.26,13.14-9.4,2.14-1.53,4.25-3.08,6.41-4.58,1.62-1.13,3.39-2.36,5.43-2.43l-2.5-4.37c-4.14,7.39-9.84,13.85-16.76,18.76l3.97,3.97c6.43-10.67,15.08-19.92,25.34-26.98h-2.93c-.63-.34-.18-.75-.54-1.1,.07,.07-.1,.48,.01,.22-.13,.3-.17,.6-.26,.77-.5,1.06-1.2,2.06-1.83,3.05-1.3,2.03-2.71,4-4.24,5.86-3.12,3.79-6.66,7.28-10.55,10.27-.82,.63-1.66,1.27-2.54,1.83-.61,.39-.76,.29-.06,.57,.37,.15-.07,.44,.14,.15-.04,.05,.02-.29,.02-.31,.12-.95,.9-1.95,1.36-2.76,.64-1.13,1.3-2.24,1.99-3.34,2.58-4.11,5.53-7.97,8.82-11.54,1.86-2.02,3.83-3.95,5.88-5.78,1.03-.91,2.08-1.8,3.15-2.66,.44-.35,.87-.71,1.33-1.04,.98-.7,.56-.12,.07-.51l-1.04-1.04c.36,.51-.31,2.18-.54,2.78-.45,1.2-1.13,2.32-1.81,3.39-1.5,2.37-3.15,4.64-4.92,6.81-3.6,4.42-7.66,8.47-12.09,12.06-2.07,1.68-4.24,3.39-6.59,4.65-.48,.26-.95,.46-1.48,.62-.2,.06-1.14,.11-1.24,.22l.59,.75v.03s.07-.41,.08-.42c.24-.58,.43-1.15,.7-1.72,2.2-4.66,5.03-9.03,8.43-12.9s7.42-7.4,11.84-10.22c.5-.32,1-.64,1.52-.92,.3-.16,1.02-.3,1.27-.49-.05,.04,.32-.11,.23-.12-.36-.05,0-.52-.31,.43-.77,2.37-2.73,4.67-4.17,6.67-3.29,4.57-7.11,8.77-11.29,12.55-.98,.89-1.99,1.76-3.01,2.6-.4,.33-.79,.65-1.22,.92,.02-.01-1.32,.54-1.27,.47,.08-.14,.3,.4,.32,.41,.18,.1-.09,.29,.12-.2,.08-.19,.14-.38,.22-.57,.53-1.26,1.21-2.47,1.91-3.64,2.61-4.34,6.2-8.1,10.47-10.84,.25-.16,1.33-.63,1.47-.88,.21-.4,.32,.37-.11-.29,.05,.08-1.05-.79-.6-.73,.32,.04-.49,1.88-.65,2.2-1.22,2.33-2.63,4.57-4.22,6.67-3.1,4.1-6.96,7.71-11.25,10.54-.52,.34-1.04,.67-1.57,.99-.27,.16-1.23,.52-1.39,.74,.04-.06-.19,.13-.19,.08,0-.19,.69,.58,.57,.61-.13,.03-.05-.89-.04-.97,.35-2.32,1.85-4.75,2.99-6.76,2.61-4.62,6.08-9.05,10.28-12.33,.2-.16,1.06-.57,1.13-.72,.02-.05-.38-.39-.59-.57s.16-.25-.05-.03c-.04,.04-.05,.29-.1,.44-.13,.43-.32,.79-.55,1.18-1.31,2.17-3.04,4.18-4.71,6.08-3.58,4.06-7.62,7.74-12.06,10.83-2.23,1.55-4.54,2.97-6.93,4.25-.99,.53-1.85,.89-2.91,1.19,.12-.03-.47-.06-.33-.1,.96-.28-.4,.96,.27,.26,.13-.14,.23-.65,.32-.85,2.03-4.59,5.15-8.69,8.85-12.05,1.88-1.71,3.94-3.19,6.14-4.46,.39-.22,.86-.5,1.08-.6,.05-.02,.65-.27,.47-.15,.31-.2,.57,.43-.32-.16l-.42-.77c-.2-.9-.43-1.02-.68-.37-.17,.12-.44,.64-.54,.78-.36,.51-.74,1-1.13,1.49-1.75,2.14-3.72,4.11-5.87,5.86-1.89,1.54-4.18,3.26-6.47,4.14-.15,.06-.66,.15-.74,.2-.23,.13-.26-.08-.26-.01,.02-1.2,.79,.79,.85,.76,.15-.08,.36-.85,.44-1.03,.31-.66,.67-1.31,1.05-1.93,1.24-2.04,2.86-3.86,4.74-5.33,.84-.66,1.76-1.23,2.69-1.74,.47-.26,.95-.52,1.46-.69,.47-.16,.91-.01,.42-.4v-4.1c-6.57,7.79-14.14,15.6-24.23,18.48l3.28,4.26c4.13-8.05,10.82-14.33,19.07-18.03l-4.26-3.28c-.71,4.28-4.19,7.48-7.44,10.08-1.72,1.38-3.6,2.58-5.54,3.63-1.43,.77-3.48,2.03-4.98,1.89-.1,0-.33-.16-.2-.02,.25,.14,.4,.33,.46,.57-.02,.32,0,.34,.06,.04,.48-.66,.63-1.88,.97-2.65,.85-1.91,1.92-3.74,3.14-5.44s2.54-3.1,4.02-4.44c.7-.64,1.43-1.25,2.2-1.81,.53-.38,2.01-1.57,2.36-1.56l-1.46-.4c-.65-.49-.87-1.01-.65-1.55-.13,.34-.14,.43-.05,.28-.35,.43-.6,.99-.91,1.45-.63,.95-1.29,1.88-2,2.77-1.53,1.93-3.23,3.72-5.05,5.38s-3.63,3.05-5.62,4.34c-1.03,.67-2.09,1.3-3.18,1.88-.54,.29-1.09,.57-1.64,.85-1.28,.63-.73-.02,.02,.47l1.04,1.04c.66,.91-.25,1.06,.14,.56,.23-.3,.36-.73,.54-1.07,.37-.71,.77-1.4,1.19-2.08,.84-1.35,1.77-2.64,2.81-3.84s2.18-2.33,3.39-3.38c.92-.8,2.01-1.8,3.24-1.28l-2.03-3.57c-1.51,3.93-3.76,7.64-6.55,10.8-1.35,1.53-2.83,3.08-4.47,4.3-.19,.14-1.49,.73-1.49,.74,.15-.39,1.13,.95,1.04,1-.01,0,.24-.42,.09-.29,.27-.23,.48-.98,.66-1.32,1.87-3.39,3.82-6.82,6.47-9.66,1.28-1.37,2.68-2.57,4.32-3.48,.37-.2,.74-.4,1.13-.57,.28-.12,.86-.19,1.08-.38l.2-.05-1.28-.67c1.16,1.59-.35-.58-.15-.58,.09,0-.47,1.09-.44,1.04-2.11,3.57-5.01,6.73-8.12,9.43-1.57,1.36-3.25,2.58-5.01,3.68-.85,.53-1.73,1.04-2.62,1.51-.25,.13-1.12,.4-1.24,.63-.15,.29,1.26,.47,1.47,.75,.28,.36-.03,.81,.16,.28,.42-1.16,1.31-3.06,2.13-4.45,1.01-1.71,2.13-3.36,3.39-4.89,2.54-3.08,5.51-5.83,8.84-8.04,.93-.62,1.89-1.2,2.86-1.74,.52-.29,1.05-.57,1.58-.83,.11-.05,.55-.19,.61-.28l.16-.06-1.17-.83c-.09,.01-.87,1.73-1.02,2-.6,1.09-1.24,2.15-1.91,3.19-1.35,2.09-2.84,4.06-4.49,5.92-.87,.98-1.77,1.98-2.74,2.86-.28,.26-.55,.49-.89,.67-.86,.45-.55-.12,.21,.51l.45,3.52c2.75-5.63,6.27-10.82,10.58-15.37,2.12-2.24,4.4-4.35,6.84-6.25,1.2-.94,2.46-1.83,3.73-2.67,1.06-.7,2.44-1.95,3.77-1.44l-1.73-4.26c-2.39,4.97-6.75,8.56-10.71,12.25-4.51,4.22-9.04,8.4-13.73,12.42l4.56,3.52c5.3-9.18,13.18-16.53,22.66-21.27,3.34-1.67,.41-6.68-2.93-5.01h0Z"/>
    <path class="cls-3" d="M167.75,87.34c3.22,0,3.22-5,0-5s-3.22,5,0,5h0Z"/>
  </g>
  <circle class="cls-2" cx="87.03" cy="101.38" r="23.31"/>
  <path class="cls-1" d="M92.98,113.77s-.08,0-.12,0c-.5-.05-.86-.45-.8-.88,0-.06,.01-.12,.01-.18,0-1.39-2.31-2.56-5.05-2.56s-5.05,1.17-5.05,2.56c0,.43-.41,.79-.92,.79s-.92-.35-.92-.79c0-2.31,3.03-4.13,6.89-4.13s6.89,1.81,6.89,4.13c0,.13,0,.25-.03,.38-.06,.4-.45,.69-.91,.69Z"/>
  <path class="cls-1" d="M70.66,102.18c-.16,0-.33-.06-.46-.18-.28-.26-.3-.69-.05-.97,3.67-4.04,8.86-2.41,9.08-2.34,.36,.12,.56,.5,.44,.86-.12,.36-.5,.56-.86,.44h0c-.19-.06-4.58-1.41-7.65,1.96-.14,.15-.32,.22-.51,.22Z"/>
  <path class="cls-1" d="M104.16,102.18c-.19,0-.37-.08-.51-.22-3.06-3.37-7.46-2.02-7.65-1.96-.36,.12-.75-.08-.86-.44-.12-.36,.08-.75,.44-.86,.22-.07,5.42-1.7,9.08,2.34,.25,.28,.23,.71-.05,.97-.13,.12-.3,.18-.46,.18Z"/>
</svg>